<svg xmlns="http://www.w3.org/2000/svg" xmlns:xlink="http://www.w3.org/1999/xlink" width="468" zoomAndPan="magnify" viewBox="0 0 351 147.750002" height="197" preserveAspectRatio="xMidYMid meet" version="1.0"><defs><filter x="0%" y="0%" width="100%" height="100%" id="2668ae404d"><feColorMatrix values="0 0 0 0 1 0 0 0 0 1 0 0 0 0 1 0 0 0 1 0" color-interpolation-filters="sRGB"/></filter><g/><clipPath id="7c0968d998"><rect x="0" width="284" y="0" height="91"/></clipPath><mask id="f9a67c4fc2"><g filter="url(#2668ae404d)"><rect x="-35.1" width="421.2" fill="#000000" y="-14.775" height="177.300003" fill-opacity="0.8"/></g></mask><clipPath id="5c0f04c361"><path d="M 0.996094 0.847656 L 226.453125 0.847656 L 226.453125 27.683594 L 0.996094 27.683594 Z M 0.996094 0.847656 " clip-rule="nonzero"/></clipPath><clipPath id="6c11ba7f33"><rect x="0" width="227" y="0" height="28"/></clipPath><clipPath id="1c692f12ee"><rect x="0" width="227" y="0" height="28"/></clipPath></defs><g transform="matrix(1, 0, 0, 1, 34, 28)"><g clip-path="url(#7c0968d998)"><g fill="#ffffff" fill-opacity="1"><g transform="translate(0.788488, 67.125661)"><g><path d="M 37.546875 -31.3125 C 37.546875 -28.882812 36.96875 -26.609375 35.8125 -24.484375 C 34.664062 -22.359375 32.867188 -20.644531 30.421875 -19.34375 C 27.984375 -18.050781 24.898438 -17.40625 21.171875 -17.40625 L 13.578125 -17.40625 L 13.578125 0 L 4.484375 0 L 4.484375 -45.34375 L 21.171875 -45.34375 C 24.679688 -45.34375 27.671875 -44.734375 30.140625 -43.515625 C 32.609375 -42.304688 34.457031 -40.640625 35.6875 -38.515625 C 36.925781 -36.390625 37.546875 -33.988281 37.546875 -31.3125 Z M 20.78125 -24.75 C 23.289062 -24.75 25.148438 -25.320312 26.359375 -26.46875 C 27.578125 -27.613281 28.1875 -29.226562 28.1875 -31.3125 C 28.1875 -35.726562 25.71875 -37.9375 20.78125 -37.9375 L 13.578125 -37.9375 L 13.578125 -24.75 Z M 20.78125 -24.75 "/></g></g></g><g fill="#ffffff" fill-opacity="1"><g transform="translate(40.276145, 67.125661)"><g><path d="M 13.578125 -30.390625 C 14.742188 -32.296875 16.269531 -33.789062 18.15625 -34.875 C 20.039062 -35.957031 22.195312 -36.5 24.625 -36.5 L 24.625 -26.953125 L 22.21875 -26.953125 C 19.351562 -26.953125 17.195312 -26.28125 15.75 -24.9375 C 14.300781 -23.59375 13.578125 -21.253906 13.578125 -17.921875 L 13.578125 0 L 4.484375 0 L 4.484375 -35.984375 L 13.578125 -35.984375 Z M 13.578125 -30.390625 "/></g></g></g><g fill="#ffffff" fill-opacity="1"><g transform="translate(66.514656, 67.125661)"><g><path d="M 20.453125 0.578125 C 16.992188 0.578125 13.878906 -0.1875 11.109375 -1.71875 C 8.335938 -3.257812 6.160156 -5.4375 4.578125 -8.25 C 2.992188 -11.0625 2.203125 -14.304688 2.203125 -17.984375 C 2.203125 -21.671875 3.015625 -24.921875 4.640625 -27.734375 C 6.265625 -30.546875 8.484375 -32.71875 11.296875 -34.25 C 14.117188 -35.789062 17.257812 -36.5625 20.71875 -36.5625 C 24.1875 -36.5625 27.328125 -35.789062 30.140625 -34.25 C 32.953125 -32.71875 35.171875 -30.546875 36.796875 -27.734375 C 38.421875 -24.921875 39.234375 -21.671875 39.234375 -17.984375 C 39.234375 -14.304688 38.398438 -11.0625 36.734375 -8.25 C 35.066406 -5.4375 32.8125 -3.257812 29.96875 -1.71875 C 27.132812 -0.1875 23.960938 0.578125 20.453125 0.578125 Z M 20.453125 -7.34375 C 22.097656 -7.34375 23.644531 -7.742188 25.09375 -8.546875 C 26.550781 -9.347656 27.710938 -10.546875 28.578125 -12.140625 C 29.441406 -13.742188 29.875 -15.691406 29.875 -17.984375 C 29.875 -21.410156 28.972656 -24.039062 27.171875 -25.875 C 25.378906 -27.71875 23.1875 -28.640625 20.59375 -28.640625 C 17.988281 -28.640625 15.8125 -27.71875 14.0625 -25.875 C 12.3125 -24.039062 11.4375 -21.410156 11.4375 -17.984375 C 11.4375 -14.566406 12.289062 -11.9375 14 -10.09375 C 15.707031 -8.257812 17.859375 -7.34375 20.453125 -7.34375 Z M 20.453125 -7.34375 "/></g></g></g><g fill="#ff5400" fill-opacity="1"><g transform="translate(107.963348, 67.125661)"><g><path d="M 38.25 7.984375 L 31.375 -0.265625 C 29.46875 0.210938 27.519531 0.453125 25.53125 0.453125 C 21.28125 0.453125 17.378906 -0.539062 13.828125 -2.53125 C 10.285156 -4.519531 7.472656 -7.28125 5.390625 -10.8125 C 3.304688 -14.34375 2.265625 -18.335938 2.265625 -22.796875 C 2.265625 -27.210938 3.304688 -31.1875 5.390625 -34.71875 C 7.472656 -38.25 10.285156 -41.007812 13.828125 -43 C 17.378906 -44.988281 21.28125 -45.984375 25.53125 -45.984375 C 29.8125 -45.984375 33.71875 -44.988281 37.25 -43 C 40.78125 -41.007812 43.570312 -38.25 45.625 -34.71875 C 47.6875 -31.1875 48.71875 -27.210938 48.71875 -22.796875 C 48.71875 -18.773438 47.859375 -15.101562 46.140625 -11.78125 C 44.429688 -8.46875 42.109375 -5.773438 39.171875 -3.703125 L 49.5625 7.984375 Z M 11.625 -22.796875 C 11.625 -19.765625 12.207031 -17.097656 13.375 -14.796875 C 14.550781 -12.503906 16.1875 -10.742188 18.28125 -9.515625 C 20.382812 -8.285156 22.800781 -7.671875 25.53125 -7.671875 C 28.257812 -7.671875 30.660156 -8.285156 32.734375 -9.515625 C 34.816406 -10.742188 36.441406 -12.503906 37.609375 -14.796875 C 38.773438 -17.097656 39.359375 -19.765625 39.359375 -22.796875 C 39.359375 -25.828125 38.773438 -28.476562 37.609375 -30.75 C 36.441406 -33.03125 34.816406 -34.773438 32.734375 -35.984375 C 30.660156 -37.191406 28.257812 -37.796875 25.53125 -37.796875 C 22.800781 -37.796875 20.382812 -37.191406 18.28125 -35.984375 C 16.1875 -34.773438 14.550781 -33.03125 13.375 -30.75 C 12.207031 -28.476562 11.625 -25.828125 11.625 -22.796875 Z M 11.625 -22.796875 "/></g></g></g><g fill="#ffffff" fill-opacity="1"><g transform="translate(159.080201, 67.125661)"><g><path d="M 37.546875 -31.3125 C 37.546875 -28.882812 36.96875 -26.609375 35.8125 -24.484375 C 34.664062 -22.359375 32.867188 -20.644531 30.421875 -19.34375 C 27.984375 -18.050781 24.898438 -17.40625 21.171875 -17.40625 L 13.578125 -17.40625 L 13.578125 0 L 4.484375 0 L 4.484375 -45.34375 L 21.171875 -45.34375 C 24.679688 -45.34375 27.671875 -44.734375 30.140625 -43.515625 C 32.609375 -42.304688 34.457031 -40.640625 35.6875 -38.515625 C 36.925781 -36.390625 37.546875 -33.988281 37.546875 -31.3125 Z M 20.78125 -24.75 C 23.289062 -24.75 25.148438 -25.320312 26.359375 -26.46875 C 27.578125 -27.613281 28.1875 -29.226562 28.1875 -31.3125 C 28.1875 -35.726562 25.71875 -37.9375 20.78125 -37.9375 L 13.578125 -37.9375 L 13.578125 -24.75 Z M 20.78125 -24.75 "/></g></g></g><g fill="#ffffff" fill-opacity="1"><g transform="translate(198.567858, 67.125661)"><g><path d="M 2.140625 -18.125 C 2.140625 -21.757812 2.863281 -24.984375 4.3125 -27.796875 C 5.769531 -30.609375 7.742188 -32.769531 10.234375 -34.28125 C 12.722656 -35.800781 15.503906 -36.5625 18.578125 -36.5625 C 21.265625 -36.5625 23.613281 -36.019531 25.625 -34.9375 C 27.632812 -33.863281 29.25 -32.503906 30.46875 -30.859375 L 30.46875 -35.984375 L 39.625 -35.984375 L 39.625 0 L 30.46875 0 L 30.46875 -5.265625 C 29.289062 -3.578125 27.671875 -2.179688 25.609375 -1.078125 C 23.554688 0.0234375 21.191406 0.578125 18.515625 0.578125 C 15.484375 0.578125 12.722656 -0.195312 10.234375 -1.75 C 7.742188 -3.3125 5.769531 -5.507812 4.3125 -8.34375 C 2.863281 -11.175781 2.140625 -14.4375 2.140625 -18.125 Z M 30.46875 -17.984375 C 30.46875 -20.191406 30.03125 -22.085938 29.15625 -23.671875 C 28.289062 -25.253906 27.125 -26.46875 25.65625 -27.3125 C 24.1875 -28.15625 22.609375 -28.578125 20.921875 -28.578125 C 19.222656 -28.578125 17.660156 -28.164062 16.234375 -27.34375 C 14.804688 -26.519531 13.648438 -25.316406 12.765625 -23.734375 C 11.878906 -22.160156 11.4375 -20.289062 11.4375 -18.125 C 11.4375 -15.957031 11.878906 -14.0625 12.765625 -12.4375 C 13.648438 -10.8125 14.816406 -9.566406 16.265625 -8.703125 C 17.722656 -7.835938 19.273438 -7.40625 20.921875 -7.40625 C 22.609375 -7.40625 24.1875 -7.828125 25.65625 -8.671875 C 27.125 -9.515625 28.289062 -10.722656 29.15625 -12.296875 C 30.03125 -13.878906 30.46875 -15.773438 30.46875 -17.984375 Z M 30.46875 -17.984375 "/></g></g></g><g fill="#ffffff" fill-opacity="1"><g transform="translate(242.601797, 67.125661)"><g><path d="M 38.90625 -35.984375 L 16.625 17.015625 L 6.953125 17.015625 L 14.75 -0.90625 L 0.328125 -35.984375 L 10.515625 -35.984375 L 19.8125 -10.84375 L 29.234375 -35.984375 Z M 38.90625 -35.984375 "/></g></g></g></g></g><g mask="url(#f9a67c4fc2)"><g transform="matrix(1, 0, 0, 1, 35, 112)"><g clip-path="url(#1c692f12ee)"><g clip-path="url(#5c0f04c361)"><g transform="matrix(1, 0, 0, 1, 0.000000000000007105, 0.000000000000042633)"><g clip-path="url(#6c11ba7f33)"><g fill="#ffffff" fill-opacity="1"><g transform="translate(1.225292, 20.623053)"><g><path d="M 10.53125 -13 L 6.296875 -4.90625 L 6.296875 0 L 4.609375 0 L 4.609375 -4.90625 L 0.359375 -13 L 2.234375 -13 L 5.4375 -6.40625 L 8.65625 -13 Z M 10.53125 -13 "/></g></g></g><g fill="#ffffff" fill-opacity="1"><g transform="translate(12.109176, 20.623053)"><g><path d="M 7.328125 0.125 C 6.117188 0.125 5.015625 -0.15625 4.015625 -0.71875 C 3.023438 -1.28125 2.238281 -2.066406 1.65625 -3.078125 C 1.082031 -4.097656 0.796875 -5.238281 0.796875 -6.5 C 0.796875 -7.769531 1.082031 -8.910156 1.65625 -9.921875 C 2.238281 -10.929688 3.023438 -11.71875 4.015625 -12.28125 C 5.015625 -12.851562 6.117188 -13.140625 7.328125 -13.140625 C 8.546875 -13.140625 9.648438 -12.851562 10.640625 -12.28125 C 11.640625 -11.71875 12.421875 -10.929688 12.984375 -9.921875 C 13.554688 -8.921875 13.84375 -7.78125 13.84375 -6.5 C 13.84375 -5.21875 13.554688 -4.070312 12.984375 -3.0625 C 12.421875 -2.0625 11.640625 -1.28125 10.640625 -0.71875 C 9.648438 -0.15625 8.546875 0.125 7.328125 0.125 Z M 7.328125 -1.34375 C 8.234375 -1.34375 9.050781 -1.550781 9.78125 -1.96875 C 10.507812 -2.394531 11.078125 -3 11.484375 -3.78125 C 11.898438 -4.5625 12.109375 -5.46875 12.109375 -6.5 C 12.109375 -7.550781 11.898438 -8.460938 11.484375 -9.234375 C 11.078125 -10.015625 10.507812 -10.613281 9.78125 -11.03125 C 9.0625 -11.457031 8.242188 -11.671875 7.328125 -11.671875 C 6.410156 -11.671875 5.585938 -11.457031 4.859375 -11.03125 C 4.140625 -10.613281 3.570312 -10.015625 3.15625 -9.234375 C 2.738281 -8.460938 2.53125 -7.550781 2.53125 -6.5 C 2.53125 -5.46875 2.738281 -4.5625 3.15625 -3.78125 C 3.570312 -3 4.144531 -2.394531 4.875 -1.96875 C 5.601562 -1.550781 6.421875 -1.34375 7.328125 -1.34375 Z M 7.328125 -1.34375 "/></g></g></g><g fill="#ffffff" fill-opacity="1"><g transform="translate(26.757689, 20.623053)"><g><path d="M 3.09375 -13 L 3.09375 -4.765625 C 3.09375 -3.609375 3.375 -2.75 3.9375 -2.1875 C 4.507812 -1.632812 5.296875 -1.359375 6.296875 -1.359375 C 7.296875 -1.359375 8.078125 -1.632812 8.640625 -2.1875 C 9.203125 -2.75 9.484375 -3.609375 9.484375 -4.765625 L 9.484375 -13 L 11.1875 -13 L 11.1875 -4.796875 C 11.1875 -3.710938 10.96875 -2.800781 10.53125 -2.0625 C 10.09375 -1.320312 9.503906 -0.769531 8.765625 -0.40625 C 8.023438 -0.0507812 7.195312 0.125 6.28125 0.125 C 5.363281 0.125 4.535156 -0.0507812 3.796875 -0.40625 C 3.054688 -0.769531 2.46875 -1.320312 2.03125 -2.0625 C 1.601562 -2.800781 1.390625 -3.710938 1.390625 -4.796875 L 1.390625 -13 Z M 3.09375 -13 "/></g></g></g><g fill="#ffffff" fill-opacity="1"><g transform="translate(39.337514, 20.623053)"><g><path d="M 8.28125 0 L 5.1875 -5.3125 L 3.125 -5.3125 L 3.125 0 L 1.4375 0 L 1.4375 -13 L 5.625 -13 C 6.613281 -13 7.445312 -12.828125 8.125 -12.484375 C 8.800781 -12.148438 9.304688 -11.695312 9.640625 -11.125 C 9.972656 -10.550781 10.140625 -9.898438 10.140625 -9.171875 C 10.140625 -8.273438 9.878906 -7.484375 9.359375 -6.796875 C 8.847656 -6.117188 8.078125 -5.664062 7.046875 -5.4375 L 10.3125 0 Z M 3.125 -6.671875 L 5.625 -6.671875 C 6.550781 -6.671875 7.242188 -6.894531 7.703125 -7.34375 C 8.160156 -7.800781 8.390625 -8.410156 8.390625 -9.171875 C 8.390625 -9.941406 8.160156 -10.535156 7.703125 -10.953125 C 7.253906 -11.378906 6.5625 -11.59375 5.625 -11.59375 L 3.125 -11.59375 Z M 3.125 -6.671875 "/></g></g></g><g fill="#ffffff" fill-opacity="1"><g transform="translate(50.668675, 20.623053)"><g/></g></g><g fill="#ffffff" fill-opacity="1"><g transform="translate(55.644689, 20.623053)"><g><path d="M 10.125 -9.1875 C 10.125 -8.101562 9.753906 -7.203125 9.015625 -6.484375 C 8.273438 -5.773438 7.144531 -5.421875 5.625 -5.421875 L 3.125 -5.421875 L 3.125 0 L 1.4375 0 L 1.4375 -13 L 5.625 -13 C 7.09375 -13 8.207031 -12.644531 8.96875 -11.9375 C 9.738281 -11.226562 10.125 -10.3125 10.125 -9.1875 Z M 5.625 -6.828125 C 6.570312 -6.828125 7.269531 -7.03125 7.71875 -7.4375 C 8.164062 -7.84375 8.390625 -8.425781 8.390625 -9.1875 C 8.390625 -10.789062 7.46875 -11.59375 5.625 -11.59375 L 3.125 -11.59375 L 3.125 -6.828125 Z M 5.625 -6.828125 "/></g></g></g><g fill="#ffffff" fill-opacity="1"><g transform="translate(66.435383, 20.623053)"><g><path d="M 9.109375 -2.890625 L 3.453125 -2.890625 L 2.40625 0 L 0.609375 0 L 5.3125 -12.921875 L 7.265625 -12.921875 L 11.953125 0 L 10.15625 0 Z M 8.625 -4.265625 L 6.28125 -10.828125 L 3.9375 -4.265625 Z M 8.625 -4.265625 "/></g></g></g><g fill="#ffffff" fill-opacity="1"><g transform="translate(78.996576, 20.623053)"><g><path d="M 10.53125 -13 L 6.296875 -4.90625 L 6.296875 0 L 4.609375 0 L 4.609375 -4.90625 L 0.359375 -13 L 2.234375 -13 L 5.4375 -6.40625 L 8.65625 -13 Z M 10.53125 -13 "/></g></g></g><g fill="#ffffff" fill-opacity="1"><g transform="translate(89.880461, 20.623053)"><g><path d="M 8.28125 0 L 5.1875 -5.3125 L 3.125 -5.3125 L 3.125 0 L 1.4375 0 L 1.4375 -13 L 5.625 -13 C 6.613281 -13 7.445312 -12.828125 8.125 -12.484375 C 8.800781 -12.148438 9.304688 -11.695312 9.640625 -11.125 C 9.972656 -10.550781 10.140625 -9.898438 10.140625 -9.171875 C 10.140625 -8.273438 9.878906 -7.484375 9.359375 -6.796875 C 8.847656 -6.117188 8.078125 -5.664062 7.046875 -5.4375 L 10.3125 0 Z M 3.125 -6.671875 L 5.625 -6.671875 C 6.550781 -6.671875 7.242188 -6.894531 7.703125 -7.34375 C 8.160156 -7.800781 8.390625 -8.410156 8.390625 -9.171875 C 8.390625 -9.941406 8.160156 -10.535156 7.703125 -10.953125 C 7.253906 -11.378906 6.5625 -11.59375 5.625 -11.59375 L 3.125 -11.59375 Z M 3.125 -6.671875 "/></g></g></g><g fill="#ffffff" fill-opacity="1"><g transform="translate(101.211622, 20.623053)"><g><path d="M 7.328125 0.125 C 6.117188 0.125 5.015625 -0.15625 4.015625 -0.71875 C 3.023438 -1.28125 2.238281 -2.066406 1.65625 -3.078125 C 1.082031 -4.097656 0.796875 -5.238281 0.796875 -6.5 C 0.796875 -7.769531 1.082031 -8.910156 1.65625 -9.921875 C 2.238281 -10.929688 3.023438 -11.71875 4.015625 -12.28125 C 5.015625 -12.851562 6.117188 -13.140625 7.328125 -13.140625 C 8.546875 -13.140625 9.648438 -12.851562 10.640625 -12.28125 C 11.640625 -11.71875 12.421875 -10.929688 12.984375 -9.921875 C 13.554688 -8.921875 13.84375 -7.78125 13.84375 -6.5 C 13.84375 -5.21875 13.554688 -4.070312 12.984375 -3.0625 C 12.421875 -2.0625 11.640625 -1.28125 10.640625 -0.71875 C 9.648438 -0.15625 8.546875 0.125 7.328125 0.125 Z M 7.328125 -1.34375 C 8.234375 -1.34375 9.050781 -1.550781 9.78125 -1.96875 C 10.507812 -2.394531 11.078125 -3 11.484375 -3.78125 C 11.898438 -4.5625 12.109375 -5.46875 12.109375 -6.5 C 12.109375 -7.550781 11.898438 -8.460938 11.484375 -9.234375 C 11.078125 -10.015625 10.507812 -10.613281 9.78125 -11.03125 C 9.0625 -11.457031 8.242188 -11.671875 7.328125 -11.671875 C 6.410156 -11.671875 5.585938 -11.457031 4.859375 -11.03125 C 4.140625 -10.613281 3.570312 -10.015625 3.15625 -9.234375 C 2.738281 -8.460938 2.53125 -7.550781 2.53125 -6.5 C 2.53125 -5.46875 2.738281 -4.5625 3.15625 -3.78125 C 3.570312 -3 4.144531 -2.394531 4.875 -1.96875 C 5.601562 -1.550781 6.421875 -1.34375 7.328125 -1.34375 Z M 7.328125 -1.34375 "/></g></g></g><g fill="#ffffff" fill-opacity="1"><g transform="translate(115.860134, 20.623053)"><g><path d="M 3.125 -1.375 L 7.6875 -1.375 L 7.6875 0 L 1.4375 0 L 1.4375 -13 L 3.125 -13 Z M 3.125 -1.375 "/></g></g></g><g fill="#ffffff" fill-opacity="1"><g transform="translate(123.911221, 20.623053)"><g><path d="M 3.125 -1.375 L 7.6875 -1.375 L 7.6875 0 L 1.4375 0 L 1.4375 -13 L 3.125 -13 Z M 3.125 -1.375 "/></g></g></g><g fill="#ffffff" fill-opacity="1"><g transform="translate(131.962309, 20.623053)"><g/></g></g><g fill="#ffffff" fill-opacity="1"><g transform="translate(136.938323, 20.623053)"><g><path d="M 5.5625 0.125 C 4.695312 0.125 3.925781 -0.0234375 3.25 -0.328125 C 2.570312 -0.628906 2.039062 -1.050781 1.65625 -1.59375 C 1.269531 -2.132812 1.070312 -2.757812 1.0625 -3.46875 L 2.875 -3.46875 C 2.9375 -2.851562 3.1875 -2.335938 3.625 -1.921875 C 4.0625 -1.515625 4.707031 -1.3125 5.5625 -1.3125 C 6.363281 -1.3125 7 -1.507812 7.46875 -1.90625 C 7.9375 -2.3125 8.171875 -2.832031 8.171875 -3.46875 C 8.171875 -3.96875 8.03125 -4.367188 7.75 -4.671875 C 7.476562 -4.984375 7.132812 -5.21875 6.71875 -5.375 C 6.3125 -5.539062 5.757812 -5.71875 5.0625 -5.90625 C 4.207031 -6.132812 3.519531 -6.359375 3 -6.578125 C 2.488281 -6.804688 2.050781 -7.15625 1.6875 -7.625 C 1.320312 -8.101562 1.140625 -8.75 1.140625 -9.5625 C 1.140625 -10.269531 1.316406 -10.894531 1.671875 -11.4375 C 2.035156 -11.988281 2.539062 -12.410156 3.1875 -12.703125 C 3.84375 -13.003906 4.59375 -13.15625 5.4375 -13.15625 C 6.65625 -13.15625 7.648438 -12.847656 8.421875 -12.234375 C 9.203125 -11.628906 9.644531 -10.828125 9.75 -9.828125 L 7.890625 -9.828125 C 7.828125 -10.316406 7.5625 -10.75 7.09375 -11.125 C 6.632812 -11.507812 6.03125 -11.703125 5.28125 -11.703125 C 4.570312 -11.703125 3.992188 -11.519531 3.546875 -11.15625 C 3.097656 -10.789062 2.875 -10.28125 2.875 -9.625 C 2.875 -9.144531 3.003906 -8.753906 3.265625 -8.453125 C 3.535156 -8.160156 3.863281 -7.9375 4.25 -7.78125 C 4.644531 -7.625 5.195312 -7.445312 5.90625 -7.25 C 6.757812 -7.007812 7.445312 -6.773438 7.96875 -6.546875 C 8.5 -6.316406 8.945312 -5.960938 9.3125 -5.484375 C 9.6875 -5.003906 9.875 -4.359375 9.875 -3.546875 C 9.875 -2.910156 9.707031 -2.3125 9.375 -1.75 C 9.039062 -1.1875 8.539062 -0.734375 7.875 -0.390625 C 7.21875 -0.046875 6.445312 0.125 5.5625 0.125 Z M 5.5625 0.125 "/></g></g></g><g fill="#ffffff" fill-opacity="1"><g transform="translate(147.878106, 20.623053)"><g><path d="M 7.328125 0.125 C 6.117188 0.125 5.015625 -0.15625 4.015625 -0.71875 C 3.023438 -1.28125 2.238281 -2.066406 1.65625 -3.078125 C 1.082031 -4.097656 0.796875 -5.238281 0.796875 -6.5 C 0.796875 -7.769531 1.082031 -8.910156 1.65625 -9.921875 C 2.238281 -10.929688 3.023438 -11.71875 4.015625 -12.28125 C 5.015625 -12.851562 6.117188 -13.140625 7.328125 -13.140625 C 8.546875 -13.140625 9.648438 -12.851562 10.640625 -12.28125 C 11.640625 -11.71875 12.421875 -10.929688 12.984375 -9.921875 C 13.554688 -8.921875 13.84375 -7.78125 13.84375 -6.5 C 13.84375 -5.21875 13.554688 -4.070312 12.984375 -3.0625 C 12.421875 -2.0625 11.640625 -1.28125 10.640625 -0.71875 C 9.648438 -0.15625 8.546875 0.125 7.328125 0.125 Z M 7.328125 -1.34375 C 8.234375 -1.34375 9.050781 -1.550781 9.78125 -1.96875 C 10.507812 -2.394531 11.078125 -3 11.484375 -3.78125 C 11.898438 -4.5625 12.109375 -5.46875 12.109375 -6.5 C 12.109375 -7.550781 11.898438 -8.460938 11.484375 -9.234375 C 11.078125 -10.015625 10.507812 -10.613281 9.78125 -11.03125 C 9.0625 -11.457031 8.242188 -11.671875 7.328125 -11.671875 C 6.410156 -11.671875 5.585938 -11.457031 4.859375 -11.03125 C 4.140625 -10.613281 3.570312 -10.015625 3.15625 -9.234375 C 2.738281 -8.460938 2.53125 -7.550781 2.53125 -6.5 C 2.53125 -5.46875 2.738281 -4.5625 3.15625 -3.78125 C 3.570312 -3 4.144531 -2.394531 4.875 -1.96875 C 5.601562 -1.550781 6.421875 -1.34375 7.328125 -1.34375 Z M 7.328125 -1.34375 "/></g></g></g><g fill="#ffffff" fill-opacity="1"><g transform="translate(162.526618, 20.623053)"><g><path d="M 3.125 -1.375 L 7.6875 -1.375 L 7.6875 0 L 1.4375 0 L 1.4375 -13 L 3.125 -13 Z M 3.125 -1.375 "/></g></g></g><g fill="#ffffff" fill-opacity="1"><g transform="translate(170.577706, 20.623053)"><g><path d="M 3.09375 -13 L 3.09375 -4.765625 C 3.09375 -3.609375 3.375 -2.75 3.9375 -2.1875 C 4.507812 -1.632812 5.296875 -1.359375 6.296875 -1.359375 C 7.296875 -1.359375 8.078125 -1.632812 8.640625 -2.1875 C 9.203125 -2.75 9.484375 -3.609375 9.484375 -4.765625 L 9.484375 -13 L 11.1875 -13 L 11.1875 -4.796875 C 11.1875 -3.710938 10.96875 -2.800781 10.53125 -2.0625 C 10.09375 -1.320312 9.503906 -0.769531 8.765625 -0.40625 C 8.023438 -0.0507812 7.195312 0.125 6.28125 0.125 C 5.363281 0.125 4.535156 -0.0507812 3.796875 -0.40625 C 3.054688 -0.769531 2.46875 -1.320312 2.03125 -2.0625 C 1.601562 -2.800781 1.390625 -3.710938 1.390625 -4.796875 L 1.390625 -13 Z M 3.09375 -13 "/></g></g></g><g fill="#ffffff" fill-opacity="1"><g transform="translate(183.157531, 20.623053)"><g><path d="M 9.4375 -13 L 9.4375 -11.609375 L 5.890625 -11.609375 L 5.890625 0 L 4.1875 0 L 4.1875 -11.609375 L 0.640625 -11.609375 L 0.640625 -13 Z M 9.4375 -13 "/></g></g></g><g fill="#ffffff" fill-opacity="1"><g transform="translate(193.240027, 20.623053)"><g><path d="M 3.125 -13 L 3.125 0 L 1.4375 0 L 1.4375 -13 Z M 3.125 -13 "/></g></g></g><g fill="#ffffff" fill-opacity="1"><g transform="translate(197.824676, 20.623053)"><g><path d="M 7.328125 0.125 C 6.117188 0.125 5.015625 -0.15625 4.015625 -0.71875 C 3.023438 -1.28125 2.238281 -2.066406 1.65625 -3.078125 C 1.082031 -4.097656 0.796875 -5.238281 0.796875 -6.5 C 0.796875 -7.769531 1.082031 -8.910156 1.65625 -9.921875 C 2.238281 -10.929688 3.023438 -11.71875 4.015625 -12.28125 C 5.015625 -12.851562 6.117188 -13.140625 7.328125 -13.140625 C 8.546875 -13.140625 9.648438 -12.851562 10.640625 -12.28125 C 11.640625 -11.71875 12.421875 -10.929688 12.984375 -9.921875 C 13.554688 -8.921875 13.84375 -7.78125 13.84375 -6.5 C 13.84375 -5.21875 13.554688 -4.070312 12.984375 -3.0625 C 12.421875 -2.0625 11.640625 -1.28125 10.640625 -0.71875 C 9.648438 -0.15625 8.546875 0.125 7.328125 0.125 Z M 7.328125 -1.34375 C 8.234375 -1.34375 9.050781 -1.550781 9.78125 -1.96875 C 10.507812 -2.394531 11.078125 -3 11.484375 -3.78125 C 11.898438 -4.5625 12.109375 -5.46875 12.109375 -6.5 C 12.109375 -7.550781 11.898438 -8.460938 11.484375 -9.234375 C 11.078125 -10.015625 10.507812 -10.613281 9.78125 -11.03125 C 9.0625 -11.457031 8.242188 -11.671875 7.328125 -11.671875 C 6.410156 -11.671875 5.585938 -11.457031 4.859375 -11.03125 C 4.140625 -10.613281 3.570312 -10.015625 3.15625 -9.234375 C 2.738281 -8.460938 2.53125 -7.550781 2.53125 -6.5 C 2.53125 -5.46875 2.738281 -4.5625 3.15625 -3.78125 C 3.570312 -3 4.144531 -2.394531 4.875 -1.96875 C 5.601562 -1.550781 6.421875 -1.34375 7.328125 -1.34375 Z M 7.328125 -1.34375 "/></g></g></g><g fill="#ffffff" fill-opacity="1"><g transform="translate(212.473188, 20.623053)"><g><path d="M 11.65625 0 L 9.953125 0 L 3.125 -10.34375 L 3.125 0 L 1.4375 0 L 1.4375 -13.015625 L 3.125 -13.015625 L 9.953125 -2.6875 L 9.953125 -13.015625 L 11.65625 -13.015625 Z M 11.65625 0 "/></g></g></g></g></g></g></g></g></g></svg>