<svg xmlns="http://www.w3.org/2000/svg" width="1200" height="800" viewBox="0 0 1200 800" fill="none">
  <defs>
    <linearGradient id="bg" x1="0" y1="0" x2="1200" y2="800" gradientUnits="userSpaceOnUse">
      <stop stop-color="#0B1F33"/><stop offset="1" stop-color="#0B3A6E"/>
    </linearGradient>
    <linearGradient id="card" x1="0" y1="0" x2="0" y2="1"><stop stop-color="#ffffff" stop-opacity=".12"/><stop offset="1" stop-color="#ffffff" stop-opacity=".04"/></linearGradient>
  </defs>
  <rect width="1200" height="800" fill="url(#bg)"/>
  <circle cx="980" cy="120" r="180" fill="#F28C28" fill-opacity=".15"/>
  <circle cx="180" cy="680" r="220" fill="#2E6BFF" fill-opacity=".12"/>
  <text x="80" y="120" fill="#F28C28" font-family="system-ui,sans-serif" font-size="18" font-weight="700" letter-spacing="4">MSG WORKFORCE</text>
  <text x="80" y="190" fill="#FFFFFF" font-family="system-ui,sans-serif" font-size="48" font-weight="800">People · Operations</text>
  <text x="80" y="250" fill="#FFFFFF" font-family="system-ui,sans-serif" font-size="48" font-weight="800">· Technology</text>
  <text x="80" y="310" fill="#9FB3C8" font-family="system-ui,sans-serif" font-size="20">Enterprise workforce solutions for Indonesian businesses</text>
  <g font-family="system-ui,sans-serif">
    <rect x="80" y="400" width="200" height="120" rx="20" fill="url(#card)" stroke="white" stroke-opacity=".15"/>
    <circle cx="120" cy="440" r="16" fill="#F28C28"/>
    <text x="148" y="446" fill="#FFFFFF" font-size="16" font-weight="700">Understand</text>
    <text x="104" y="490" fill="#9FB3C8" font-size="13">Requirements</text>
    <rect x="320" y="400" width="200" height="120" rx="20" fill="url(#card)" stroke="white" stroke-opacity=".15"/>
    <circle cx="360" cy="440" r="16" fill="#F28C28"/>
    <text x="388" y="446" fill="#FFFFFF" font-size="16" font-weight="700">Mobilize</text>
    <text x="344" y="490" fill="#9FB3C8" font-size="13">Talent ready</text>
    <rect x="560" y="400" width="200" height="120" rx="20" fill="url(#card)" stroke="white" stroke-opacity=".15"/>
    <circle cx="600" cy="440" r="16" fill="#F28C28"/>
    <text x="628" y="446" fill="#FFFFFF" font-size="16" font-weight="700">Operate</text>
    <text x="584" y="490" fill="#9FB3C8" font-size="13">Daily control</text>
    <rect x="800" y="400" width="200" height="120" rx="20" fill="url(#card)" stroke="white" stroke-opacity=".15"/>
    <circle cx="840" cy="440" r="16" fill="#F28C28"/>
    <text x="868" y="446" fill="#FFFFFF" font-size="16" font-weight="700">Improve</text>
    <text x="824" y="490" fill="#9FB3C8" font-size="13">Data loops</text>
    <path d="M280 460 H320 M520 460 H560 M760 460 H800" stroke="#F28C28" stroke-width="3" stroke-linecap="round"/>
  </g>
  <rect x="80" y="580" width="900" height="120" rx="24" fill="url(#card)" stroke="white" stroke-opacity=".12"/>
  <text x="120" y="635" fill="#FFFFFF" font-family="system-ui,sans-serif" font-size="22" font-weight="700">Structured workforce delivery</text>
  <text x="120" y="670" fill="#9FB3C8" font-family="system-ui,sans-serif" font-size="16">Sourcing · Onboarding · Attendance · Payroll support · Reporting</text>
</svg>